<svg width="1280" height="832" viewBox="0 0 1280 832" fill="none" xmlns="http://www.w3.org/2000/svg">
<g clip-path="url(#clip0_1_3)">
<rect width="1280" height="832" fill="white"/>
<path d="M1053.88 209.273L1389.78 -129.854L1493.5 395.203L1053.88 209.273Z" fill="#F2BA29"/>
<path d="M1136.8 94.2417L1050.29 98.3922L1089.95 21.4031L1136.8 94.2417Z" fill="#368EA2"/>
<path d="M1050.25 170.139L1005.96 122.675L1059.7 105.912L1050.25 170.139Z" fill="#FF800B"/>
<path d="M1014.18 36.0336L1033.19 14.6909L1042.17 41.8222L1014.18 36.0336Z" fill="#FF800B"/>
<path d="M298.21 769.961L-53.8609 968.828L-83.4281 636.341L298.21 769.961Z" fill="#49BBDF"/>
<path d="M148.663 606.948L140.548 693.169L69.9358 643.03L148.663 606.948Z" fill="#B5E156"/>
<path d="M116.667 605.426L9.38047 636.578L36.0451 528.089L116.667 605.426Z" fill="#3C6CA8"/>
<path d="M316.664 787.74L309.9 834.014L273.208 805.019L316.664 787.74Z" fill="#F2BA29"/>
<path d="M248.764 701.739L233.096 719.096L255.961 723.986L248.764 701.739Z" fill="#49BBDF"/>
</g>
<defs>
<clipPath id="clip0_1_3">
<rect width="1280" height="832" fill="white"/>
</clipPath>
</defs>
</svg>
