<svg width="1440" height="1024" viewBox="0 0 1440 1024" fill="none" xmlns="http://www.w3.org/2000/svg">
<g clip-path="url(#clip0_0_3)">
<rect width="1440" height="1024" fill="white"/>
<path d="M1088.88 209.273L1424.78 -129.854L1528.5 395.203L1088.88 209.273Z" fill="#F2BA29"/>
<path d="M1171.8 94.2417L1085.29 98.3922L1124.95 21.4031L1171.8 94.2417Z" fill="#368EA2"/>
<path d="M1085.25 170.139L1040.96 122.675L1094.7 105.912L1085.25 170.139Z" fill="#FF800B"/>
<path d="M1049.18 36.0336L1068.19 14.6909L1077.17 41.8222L1049.18 36.0336Z" fill="#FF800B"/>
<path d="M334.21 946.961L-17.861 1145.83L-47.4281 813.341L334.21 946.961Z" fill="#49BBDF"/>
<path d="M184.663 783.948L176.548 870.169L105.936 820.03L184.663 783.948Z" fill="#B5E156"/>
<path d="M152.667 782.426L45.3804 813.578L72.0451 705.089L152.667 782.426Z" fill="#3C6CA8"/>
<path d="M352.664 964.74L345.9 1011.01L309.208 982.019L352.664 964.74Z" fill="#F2BA29"/>
<path d="M284.763 878.739L269.096 896.096L291.961 900.986L284.763 878.739Z" fill="#49BBDF"/>
</g>
<defs>
<clipPath id="clip0_0_3">
<rect width="1440" height="1024" fill="white"/>
</clipPath>
</defs>
</svg>
